<mxfile host="Electron" modified="2024-07-06T17:23:42.629Z" agent="Mozilla/5.0 (X11; Linux x86_64) AppleWebKit/537.36 (KHTML, like Gecko) draw.io/24.5.3 Chrome/124.0.6367.207 Electron/30.0.6 Safari/537.36" etag="c2_3MCRNM6T6QBBXGa-s" version="24.5.3" type="device">
  <diagram name="Page-1" id="ZcRAXSWJTWcisyccbfvs">
    <mxGraphModel dx="1225" dy="-445" grid="1" gridSize="1" guides="1" tooltips="1" connect="1" arrows="1" fold="1" page="0" pageScale="1" pageWidth="827" pageHeight="1169" math="0" shadow="0">
      <root>
        <mxCell id="0" />
        <mxCell id="1" parent="0" />
        <mxCell id="RPMx26uoqZYTiA5Tm64J-31" value="" style="verticalLabelPosition=bottom;verticalAlign=top;html=1;shape=mxgraph.basic.orthogonal_triangle;strokeColor=none;fillColor=#474747;" parent="1" vertex="1">
          <mxGeometry x="217" y="1632" width="18" height="36" as="geometry" />
        </mxCell>
        <mxCell id="USSYL_m57S34nE8gyuuM-24" value="" style="rounded=0;whiteSpace=wrap;html=1;strokeColor=none;fillColor=#474747;" parent="1" vertex="1">
          <mxGeometry x="182" y="1632" width="36" height="36" as="geometry" />
        </mxCell>
        <mxCell id="RPMx26uoqZYTiA5Tm64J-14" value="" style="endArrow=none;html=1;rounded=0;exitX=0.5;exitY=1;exitDx=0;exitDy=0;entryX=0.5;entryY=0;entryDx=0;entryDy=0;strokeWidth=6;strokeColor=#474747;" parent="1" source="RPMx26uoqZYTiA5Tm64J-11" target="RPMx26uoqZYTiA5Tm64J-11" edge="1">
          <mxGeometry width="50" height="50" relative="1" as="geometry">
            <mxPoint x="160" y="1640" as="sourcePoint" />
            <mxPoint x="210" y="1590" as="targetPoint" />
          </mxGeometry>
        </mxCell>
        <mxCell id="USSYL_m57S34nE8gyuuM-23" value="" style="rounded=0;whiteSpace=wrap;html=1;strokeColor=none;fillColor=#474747;" parent="1" vertex="1">
          <mxGeometry x="142" y="1632" width="36" height="36" as="geometry" />
        </mxCell>
        <mxCell id="RPMx26uoqZYTiA5Tm64J-32" value="" style="verticalLabelPosition=bottom;verticalAlign=top;html=1;shape=mxgraph.basic.orthogonal_triangle;strokeColor=none;fillColor=#474747;rotation=-90;" parent="1" vertex="1">
          <mxGeometry x="116" y="1640" width="36" height="18" as="geometry" />
        </mxCell>
        <mxCell id="RPMx26uoqZYTiA5Tm64J-11" value="" style="shape=trapezoid;perimeter=trapezoidPerimeter;whiteSpace=wrap;html=1;fixedSize=1;strokeWidth=6;fillColor=none;size=20;strokeColor=#ffffff;" parent="1" vertex="1">
          <mxGeometry x="121" y="1630" width="118" height="40" as="geometry" />
        </mxCell>
        <mxCell id="RPMx26uoqZYTiA5Tm64J-34" value="" style="rounded=0;whiteSpace=wrap;html=1;strokeColor=none;fillColor=none;" parent="1" vertex="1">
          <mxGeometry x="90" y="1538" width="180" height="180" as="geometry" />
        </mxCell>
        <mxCell id="JEPv77oS2WXaHXC-iBj2-8" value="" style="endArrow=none;html=1;rounded=0;exitX=0;exitY=0.75;exitDx=0;exitDy=0;exitPerimeter=0;strokeWidth=3;strokeColor=#999999;" parent="1" source="USSYL_m57S34nE8gyuuM-1" edge="1">
          <mxGeometry width="50" height="50" relative="1" as="geometry">
            <mxPoint x="200" y="1591" as="sourcePoint" />
            <mxPoint x="180" y="1569" as="targetPoint" />
          </mxGeometry>
        </mxCell>
        <mxCell id="JEPv77oS2WXaHXC-iBj2-7" value="" style="endArrow=none;html=1;rounded=0;exitX=0;exitY=0.25;exitDx=0;exitDy=0;exitPerimeter=0;strokeWidth=3;strokeColor=#999999;" parent="1" source="USSYL_m57S34nE8gyuuM-1" edge="1">
          <mxGeometry width="50" height="50" relative="1" as="geometry">
            <mxPoint x="220" y="1591" as="sourcePoint" />
            <mxPoint x="180" y="1569" as="targetPoint" />
          </mxGeometry>
        </mxCell>
        <mxCell id="USSYL_m57S34nE8gyuuM-7" value="" style="endArrow=none;html=1;rounded=0;exitX=0.008;exitY=0.996;exitDx=0;exitDy=0;exitPerimeter=0;strokeWidth=3;strokeColor=#999999;" parent="1" source="USSYL_m57S34nE8gyuuM-1" edge="1">
          <mxGeometry width="50" height="50" relative="1" as="geometry">
            <mxPoint x="220" y="1591" as="sourcePoint" />
            <mxPoint x="180" y="1569" as="targetPoint" />
          </mxGeometry>
        </mxCell>
        <mxCell id="USSYL_m57S34nE8gyuuM-5" value="" style="endArrow=none;html=1;rounded=0;exitX=0.393;exitY=0.006;exitDx=0;exitDy=0;exitPerimeter=0;strokeWidth=3;strokeColor=#999999;" parent="1" edge="1">
          <mxGeometry width="50" height="50" relative="1" as="geometry">
            <mxPoint x="180" y="1589" as="sourcePoint" />
            <mxPoint x="180" y="1567" as="targetPoint" />
          </mxGeometry>
        </mxCell>
        <mxCell id="USSYL_m57S34nE8gyuuM-6" value="" style="endArrow=none;html=1;rounded=0;exitX=0.012;exitY=0.001;exitDx=0;exitDy=0;exitPerimeter=0;strokeWidth=3;strokeColor=#999999;" parent="1" source="USSYL_m57S34nE8gyuuM-1" edge="1">
          <mxGeometry width="50" height="50" relative="1" as="geometry">
            <mxPoint x="220" y="1589" as="sourcePoint" />
            <mxPoint x="180" y="1569" as="targetPoint" />
          </mxGeometry>
        </mxCell>
        <mxCell id="RPMx26uoqZYTiA5Tm64J-33" value="" style="rounded=0;whiteSpace=wrap;html=1;fillColor=#FFFFFF;strokeColor=none;" parent="1" vertex="1">
          <mxGeometry x="116" y="1673" width="128" height="4" as="geometry" />
        </mxCell>
        <mxCell id="USSYL_m57S34nE8gyuuM-1" value="" style="shape=or;whiteSpace=wrap;html=1;rotation=90;fillColor=none;strokeWidth=4;strokeColor=#FFFFFF;" parent="1" vertex="1">
          <mxGeometry x="166.5" y="1564" width="27" height="80" as="geometry" />
        </mxCell>
        <mxCell id="USSYL_m57S34nE8gyuuM-2" value="" style="endArrow=none;html=1;rounded=0;exitX=0.393;exitY=0.006;exitDx=0;exitDy=0;exitPerimeter=0;entryX=1;entryY=0.5;entryDx=0;entryDy=0;entryPerimeter=0;strokeWidth=4;strokeColor=#FFFFFF;" parent="1" source="RPMx26uoqZYTiA5Tm64J-11" target="USSYL_m57S34nE8gyuuM-1" edge="1">
          <mxGeometry width="50" height="50" relative="1" as="geometry">
            <mxPoint x="162" y="1640" as="sourcePoint" />
            <mxPoint x="212" y="1590" as="targetPoint" />
          </mxGeometry>
        </mxCell>
        <mxCell id="USSYL_m57S34nE8gyuuM-3" value="" style="endArrow=none;html=1;rounded=0;entryX=1;entryY=0.5;entryDx=0;entryDy=0;entryPerimeter=0;exitX=0.589;exitY=-0.004;exitDx=0;exitDy=0;exitPerimeter=0;strokeWidth=4;strokeColor=#FFFFFF;" parent="1" source="RPMx26uoqZYTiA5Tm64J-11" target="USSYL_m57S34nE8gyuuM-1" edge="1">
          <mxGeometry width="50" height="50" relative="1" as="geometry">
            <mxPoint x="162" y="1640" as="sourcePoint" />
            <mxPoint x="212" y="1590" as="targetPoint" />
          </mxGeometry>
        </mxCell>
        <mxCell id="USSYL_m57S34nE8gyuuM-11" value="" style="ellipse;whiteSpace=wrap;html=1;aspect=fixed;strokeColor=none;fillColor=#FF21F8;" parent="1" vertex="1">
          <mxGeometry x="174.25" y="1564" width="11.5" height="11.5" as="geometry" />
        </mxCell>
        <mxCell id="USSYL_m57S34nE8gyuuM-13" value="" style="ellipse;whiteSpace=wrap;html=1;aspect=fixed;strokeWidth=6;strokeColor=none;fillColor=#218A47;" parent="1" vertex="1">
          <mxGeometry x="146" y="1636" width="28" height="28" as="geometry" />
        </mxCell>
        <mxCell id="USSYL_m57S34nE8gyuuM-14" value="" style="ellipse;whiteSpace=wrap;html=1;aspect=fixed;strokeWidth=2;strokeColor=#27E002;fillColor=none;" parent="1" vertex="1">
          <mxGeometry x="146" y="1636" width="28" height="28" as="geometry" />
        </mxCell>
        <mxCell id="USSYL_m57S34nE8gyuuM-16" value="" style="ellipse;whiteSpace=wrap;html=1;aspect=fixed;strokeWidth=2;strokeColor=#27E002;fillColor=none;" parent="1" vertex="1">
          <mxGeometry x="151" y="1641" width="18" height="18" as="geometry" />
        </mxCell>
        <mxCell id="USSYL_m57S34nE8gyuuM-17" value="" style="ellipse;whiteSpace=wrap;html=1;aspect=fixed;strokeWidth=2;strokeColor=#27E002;fillColor=#27E002;" parent="1" vertex="1">
          <mxGeometry x="156" y="1646" width="8" height="8" as="geometry" />
        </mxCell>
        <mxCell id="JEPv77oS2WXaHXC-iBj2-2" value="" style="rounded=0;whiteSpace=wrap;html=1;strokeColor=none;fillColor=#0099FF;" parent="1" vertex="1">
          <mxGeometry x="185.75" y="1637" width="7.25" height="26" as="geometry" />
        </mxCell>
        <mxCell id="JEPv77oS2WXaHXC-iBj2-3" value="" style="rounded=0;whiteSpace=wrap;html=1;strokeColor=none;fillColor=#0099FF;" parent="1" vertex="1">
          <mxGeometry x="207" y="1637" width="7.25" height="26" as="geometry" />
        </mxCell>
        <mxCell id="JEPv77oS2WXaHXC-iBj2-4" value="" style="rounded=0;whiteSpace=wrap;html=1;strokeColor=none;fillColor=#0099FF;" parent="1" vertex="1">
          <mxGeometry x="196.38" y="1637" width="7.25" height="26" as="geometry" />
        </mxCell>
      </root>
    </mxGraphModel>
  </diagram>
</mxfile>
